<mxfile host="Electron" agent="Mozilla/5.0 (Windows NT 10.0; Win64; x64) AppleWebKit/537.36 (KHTML, like Gecko) draw.io/24.7.5 Chrome/126.0.6478.183 Electron/31.3.0 Safari/537.36" version="24.7.5">
  <diagram name="ページ1" id="LE8fIzdrHe0wcv1LTvfw">
    <mxGraphModel dx="1050" dy="621" grid="1" gridSize="10" guides="1" tooltips="1" connect="1" arrows="1" fold="1" page="1" pageScale="1" pageWidth="1600" pageHeight="1200" math="0" shadow="0">
      <root>
        <mxCell id="0" />
        <mxCell id="cFaB45KztUIKXS-_cTrr-4" value="背景" style="locked=1;" parent="0" visible="0" />
        <mxCell id="cFaB45KztUIKXS-_cTrr-5" value="" style="rounded=0;whiteSpace=wrap;html=1;strokeWidth=3;" parent="cFaB45KztUIKXS-_cTrr-4" vertex="1">
          <mxGeometry x="1" y="1" width="1595" height="1180" as="geometry" />
        </mxCell>
        <mxCell id="cFaB45KztUIKXS-_cTrr-6" value="" style="rounded=0;whiteSpace=wrap;html=1;fillColor=#B3B3B3;fontColor=#333333;strokeColor=#666666;" parent="cFaB45KztUIKXS-_cTrr-4" vertex="1">
          <mxGeometry width="1595" height="60" as="geometry" />
        </mxCell>
        <mxCell id="cFaB45KztUIKXS-_cTrr-7" value="&lt;font style=&quot;font-size: 48px;&quot;&gt;×&lt;/font&gt;" style="rounded=0;whiteSpace=wrap;html=1;" parent="cFaB45KztUIKXS-_cTrr-4" vertex="1">
          <mxGeometry x="1550" y="10" width="40" height="40" as="geometry" />
        </mxCell>
        <mxCell id="cFaB45KztUIKXS-_cTrr-8" value="" style="rounded=0;whiteSpace=wrap;html=1;" parent="cFaB45KztUIKXS-_cTrr-4" vertex="1">
          <mxGeometry x="830" y="670" width="120" height="60" as="geometry" />
        </mxCell>
        <mxCell id="cFaB45KztUIKXS-_cTrr-9" value="ウインドウ" style="" parent="0" />
        <mxCell id="cFaB45KztUIKXS-_cTrr-10" value="" style="rounded=0;whiteSpace=wrap;html=1;strokeWidth=3;" parent="cFaB45KztUIKXS-_cTrr-9" vertex="1">
          <mxGeometry x="15" y="10" width="1584" height="1170" as="geometry" />
        </mxCell>
        <mxCell id="cFaB45KztUIKXS-_cTrr-11" value="" style="rounded=0;whiteSpace=wrap;html=1;fillColor=#B3B3B3;fontColor=#333333;strokeColor=#666666;" parent="cFaB45KztUIKXS-_cTrr-9" vertex="1">
          <mxGeometry x="17" y="12" width="1583" height="60" as="geometry" />
        </mxCell>
        <mxCell id="cFaB45KztUIKXS-_cTrr-12" value="&lt;font style=&quot;font-size: 48px;&quot;&gt;×&lt;/font&gt;" style="rounded=0;whiteSpace=wrap;html=1;" parent="cFaB45KztUIKXS-_cTrr-9" vertex="1">
          <mxGeometry x="1554" y="30" width="40" height="40" as="geometry" />
        </mxCell>
        <mxCell id="cFaB45KztUIKXS-_cTrr-14" value="名称未設定レイヤ" style="" parent="0" />
        <mxCell id="L6Dk48c8kViy_fzFO3mH-0" value="" style="rounded=0;whiteSpace=wrap;html=1;fillColor=none;strokeWidth=2;" parent="cFaB45KztUIKXS-_cTrr-14" vertex="1">
          <mxGeometry x="300" y="270" width="960" height="580" as="geometry" />
        </mxCell>
        <mxCell id="HvR4dSRWBfD3urc1JDpB-15" value="&lt;span style=&quot;font-size: 30px;&quot;&gt;ログイン&lt;/span&gt;" style="rounded=1;whiteSpace=wrap;html=1;" parent="cFaB45KztUIKXS-_cTrr-14" vertex="1">
          <mxGeometry x="624" y="600" width="210" height="60" as="geometry" />
        </mxCell>
        <mxCell id="8Hxk6lD6Y1Y_H0gw2qUc-4" value="&lt;span style=&quot;font-size: 30px;&quot;&gt;メールアドレス&lt;/span&gt;" style="rounded=0;whiteSpace=wrap;html=1;align=right;dashed=1;dashPattern=8 8;verticalAlign=bottom;" parent="cFaB45KztUIKXS-_cTrr-14" vertex="1">
          <mxGeometry x="374" y="430" width="310" height="46" as="geometry" />
        </mxCell>
        <mxCell id="8Hxk6lD6Y1Y_H0gw2qUc-5" value="&lt;font style=&quot;font-size: 30px;&quot;&gt;abcdef@hogehoge.net&lt;/font&gt;" style="rounded=0;whiteSpace=wrap;html=1;align=left;" parent="cFaB45KztUIKXS-_cTrr-14" vertex="1">
          <mxGeometry x="704" y="428" width="450" height="48" as="geometry" />
        </mxCell>
        <mxCell id="8Hxk6lD6Y1Y_H0gw2qUc-6" value="&lt;span style=&quot;font-size: 30px;&quot;&gt;パスワード&lt;/span&gt;" style="rounded=0;whiteSpace=wrap;html=1;align=right;dashed=1;dashPattern=8 8;verticalAlign=bottom;" parent="cFaB45KztUIKXS-_cTrr-14" vertex="1">
          <mxGeometry x="374" y="498" width="310" height="46" as="geometry" />
        </mxCell>
        <mxCell id="8Hxk6lD6Y1Y_H0gw2qUc-7" value="&lt;font style=&quot;font-size: 30px;&quot;&gt;************&lt;/font&gt;" style="rounded=0;whiteSpace=wrap;html=1;align=left;" parent="cFaB45KztUIKXS-_cTrr-14" vertex="1">
          <mxGeometry x="704" y="496" width="450" height="48" as="geometry" />
        </mxCell>
        <mxCell id="L6Dk48c8kViy_fzFO3mH-1" value="&lt;span style=&quot;font-size: 30px;&quot;&gt;ユーザログイン&lt;/span&gt;" style="rounded=0;whiteSpace=wrap;html=1;align=center;dashed=1;dashPattern=8 8;verticalAlign=bottom;" parent="cFaB45KztUIKXS-_cTrr-14" vertex="1">
          <mxGeometry x="584" y="319" width="310" height="46" as="geometry" />
        </mxCell>
        <mxCell id="L6Dk48c8kViy_fzFO3mH-2" value="&lt;span style=&quot;font-size: 30px;&quot;&gt;新規ユーザ登録&lt;/span&gt;" style="rounded=0;whiteSpace=wrap;html=1;align=center;dashed=1;dashPattern=8 8;verticalAlign=bottom;" parent="cFaB45KztUIKXS-_cTrr-14" vertex="1">
          <mxGeometry x="584" y="710" width="310" height="46" as="geometry" />
        </mxCell>
        <mxCell id="L6Dk48c8kViy_fzFO3mH-3" value="&lt;span style=&quot;font-size: 30px;&quot;&gt;※パスワードを忘れたので再発行&lt;/span&gt;" style="rounded=0;whiteSpace=wrap;html=1;align=center;dashed=1;dashPattern=8 8;verticalAlign=bottom;" parent="cFaB45KztUIKXS-_cTrr-14" vertex="1">
          <mxGeometry x="427" y="780" width="706" height="46" as="geometry" />
        </mxCell>
        <mxCell id="hnrwnTZgZqvdLHH5VkUL-0" value="" style="shape=image;verticalLabelPosition=bottom;labelBackgroundColor=default;verticalAlign=top;aspect=fixed;imageAspect=0;image=data:image/png,iVBORw0KGgoAAAANSUhEUgAAACUAAAAhCAYAAABeD2IVAAAAAXNSR0IArs4c6QAAAARnQU1BAACxjwv8YQUAAAAJcEhZcwAAEnQAABJ0Ad5mH3gAAASLSURBVFhH7VdZKKZfGD/IGkKWMJRcWMuafV+uXEiR5cYFuSCRKDeKaMhO5laRZLnQRHIzWUqWrEVRkrXJMvY95vmf55nzvb7Pt4yZmm/m4v+r03mf5yzv7322c14d4GD/GHRF/0/hf1LvxV8jtbe3x46Pj4X0Bhjo2gYnBE5OTuDp6Qnb29tC+wqtk9rf3wd3d3fMeGpjY2Ni5BVaJXVwcAAeHh5ERk9PDwYGBsSIIrRG6vDwkNyFhHR1daGvr0+MKOO3i+fy8jKbmJhgc3NzjL+QPT4+MktLS+bq6spCQkJYdHQ0c3BwYPr6+uzr168sMTGRra+vMx0dHdbb28syMjLETipA1H4BQ0NDEBsbK8WEusbJwNLSEnz79g28vb1JxwkBJyR2Uo93k1pcXIS4uDill2PD+DAxMVHQtbS0ECEfHx+SzczMYHh4WOymGe8iVVdXR18ueyHGBPZ+fn7Q2dkJGxsblFULCwtQUVEB7e3tcH9/T+OyNVZWVsDdLXbUDI2krq+vITU1VdrY398fsrOz6Tk3NxceHh7ETEWg3tfXl+ZZWFiAkZGRtMfHjx/FLPVQS4pXWwgNDZU2y8vLg8vLS0rpyMhIMQtI19HRASUlJXB3dwcXFxcKFkpLS4O1tTUprrAVFBSI1aqhktTJyQkEBARIm7S1tZF+cHCQZHQTYnd3VyqE6LbT01MIDAwk2dDQkMibmpqSxa+uriA9PV3as7CwkPZQBSVS+KXBwcG08G09ycrKAnt7eyH9kHEeBvXLywsEBQWRjO7CwojHCcr9/f1iBZDbUYettLRUaBWhRConJ4cWmJubw8jIiND+QFhYGDXE8/Mz2NnZQXV1NXz//h14bZJelpmZSXPwA1FuaGggWQZ0tWxud3e30L5C6ZawublJPf9a5ujoSM8y8LRm3A30zC3Denp6WFlZGQsPD2ezs7OkR7i5uVHPM5B6Xi6ol4GXCca9QM/86KFeAYKchPn5ebCxsaGvwNojfz5VVlaSHs8wxNPTk4KFsKGFt7a2aHx0dJR009PTJCOqqqqkuWh1jMO3UBnomC0uLi7S4pqaGtJjYKM8Pj4Ot7e3CoSsra0hIiJCgUBUVBRwa9MzZjNmomx+fHw8nJ+f09hbqCSFQALyGYhHy+TkJMzMzMDZ2Rlwl5Eej45Pnz4pvaC1tZXGP3/+TLHp7Ows7YW1Tl2NQ6glhcBUls8WmcXQIihjdjY3N5NOBrRIeXk5jXt5eUFycrK03tjYmMj+DBpJydDV1QW1tbUUQ1h7ZC9BK2FR5Cc+FBcXQ0pKCtja2krj8i0hIQFWVlbEjprxLlIyyBN6b8Oap+nupArvIoVulCeEVsHqjIVUngA2AwMDclt+fj58+fJF7PBr+Okl7+bmhiUlJbGpqSmSeUywoqIieuZk2c7ODjs6OmI8cKmOffjwgfHMlerQb4GoqQFaKCYmRrLC26D+U1BLiltI4YbZ1NQkRv48VJLCE13+ltnY2ChGtAMlUvwHQMFl9fX1YkR7UCKFVxB0FV5/sTb9DajNvtXVVTrNtQ/G/gMsR33LUJs8IQAAAABJRU5ErkJggg==;" parent="cFaB45KztUIKXS-_cTrr-14" vertex="1">
          <mxGeometry x="490" y="501" width="44" height="39.24" as="geometry" />
        </mxCell>
      </root>
    </mxGraphModel>
  </diagram>
</mxfile>
